<svg width="53" height="50" viewBox="0 0 53 50" fill="none" xmlns="http://www.w3.org/2000/svg">
<circle cx="35.5" cy="35.5" r="14.5" fill="#E89160"/>
<circle cx="14.5" cy="19.5" r="14.5" fill="url(#paint0_linear)"/>
<path fill-rule="evenodd" clip-rule="evenodd" d="M36.6523 43.6177V42.5595C36.6523 42.5595 33.3454 42.6256 32.4195 41.8981C31.4935 41.1706 30.8983 39.914 30.8983 37.996C30.8983 36.078 30.8983 31.9775 30.8983 31.9775C30.8983 31.9775 39.6946 31.0515 42.4724 28.2737C45.2501 25.496 46.0438 20.9986 46.0438 18.2208C46.0438 16.8319 46.0584 13.0989 46.0584 11.1474C46.0584 9.95548 46.269 7.83323 47.8867 7.83323C48.691 7.83323 49.9459 7.83723 49.9459 7.83723V6.44834C49.9459 6.44834 48.2263 6.3822 47.1681 6.3822C46.1099 6.3822 43.5636 6.54755 42.274 7.83723C40.9843 9.12691 40.1576 12.6653 40.1576 18.7499C40.1576 24.8346 39.6285 26.488 38.1073 28.0092C35.8253 30.2912 30.8983 30.4563 30.8983 30.4563C30.8983 30.4563 30.8983 15.1124 30.8983 12.996C30.8983 10.8796 30.8322 9.75522 31.8242 8.76315C32.8163 7.77109 36.1232 7.90337 36.1232 7.90337V6.3822H19.877V7.90337C19.877 7.90337 23.1838 7.77109 24.1759 8.76315C25.168 9.75522 25.1018 10.8796 25.1018 12.996C25.1018 15.1124 25.1018 30.4563 25.1018 30.4563C25.1018 30.4563 20.1748 30.2912 17.8928 28.0092C16.3717 26.488 15.8426 24.8346 15.8426 18.7499C15.8426 12.6653 15.0158 9.12692 13.7262 7.83724C12.4365 6.54756 9.89018 6.38221 8.83198 6.38221C7.77378 6.38221 6.0542 6.44835 6.0542 6.44835V7.83724C6.0542 7.83724 7.3091 7.83324 8.11346 7.83324C9.73114 7.83324 9.94176 9.95549 9.94176 11.1474C9.94176 13.0989 9.95632 16.832 9.95632 18.2208C9.95632 20.9986 10.75 25.496 13.5277 28.2738C16.3055 31.0515 25.1018 31.9775 25.1018 31.9775C25.1018 31.9775 25.1018 36.078 25.1018 37.996C25.1018 39.914 24.5066 41.1706 23.5807 41.8981C22.6547 42.6256 19.3478 42.5595 19.3478 42.5595V43.6177" fill="#646C79"/>
<defs>
<linearGradient id="paint0_linear" x1="29" y1="22.5902" x2="-0.000357161" y2="22.6131" gradientUnits="userSpaceOnUse">
<stop stop-color="#4DC8C0"/>
<stop offset="1" stop-color="#56D0C9"/>
</linearGradient>
</defs>
</svg>
