<svg width="38" height="38" viewBox="0 0 38 38" fill="none" xmlns="http://www.w3.org/2000/svg">
<circle cx="19" cy="19" r="18.5" stroke="#E89160"/>
<path d="M19.7408 26.4036L22.3055 23.8389C22.6481 23.4963 23.1871 23.4486 23.5846 23.7258L27.1353 26.2023C27.6459 26.5584 27.7106 27.2894 27.2704 27.7296L26.8841 28.1159C26.1739 28.8261 25.1547 29.1338 24.1986 28.826C22.1336 28.1613 18.3767 26.6179 15.2618 23.503C12.1468 20.388 10.6034 16.6311 9.93871 14.5661C9.63093 13.61 9.93859 12.5909 10.6489 11.8806L11.0351 11.4943C11.4753 11.0542 12.2063 11.1188 12.5624 11.6294L15.0389 15.1801C15.3161 15.5776 15.2684 16.1166 14.9258 16.4593L12.3611 19.0239" stroke="#E89160" stroke-linecap="round"/>
</svg>
