<svg xmlns="http://www.w3.org/2000/svg" viewBox="0 0 347.79 313.12"><defs><style>.cls-1{fill:#656d79;}.cls-2{fill:#e79160;}.cls-3{fill:#50c9c2;}.cls-4{fill:#54cec7;}.cls-5{fill:#52cbc4;}.cls-6{fill:#d1956b;}</style></defs><g id="Слой_2" data-name="Слой 2"><g id="Слой_1-2" data-name="Слой 1"><path class="cls-1" d="M278.66,116.36c.26-6.29.73-12.58.74-18.88,0-19.5.54-39,5.4-58C290,19.3,298.47,12,319.26,10.29c9.08-.73,18.27-.12,27.8-.12V20c-4.35,0-8.63,0-12.91,0-5.87,0-9.59,2.23-11.28,7.87a55.09,55.09,0,0,0-2.31,14.19c-.33,12.31-.46,24.65-.1,37,.57,19.47-1.45,38.5-8,56.93a11.22,11.22,0,0,0-1,1.67c-7.65,19.32-21,32.83-41.21,38.2-16.66,4.43-33.64,7.66-50.52,11.25-2.49.53-4.48.64-4.45,3.95.13,15-.27,30,.29,45,.54,14.49,8.57,22.63,22.72,24.24,5.55.64,11.13,1,16.63,1.45.8,7.15.74,7.23-5.77,7.25l-85,.16c-7.81-.11-15.63-.26-23.45-.33-6.43-.06-6.43,0-5.69-6.75l22.54-2.89c9.78-1.62,14.72-9,15.45-17.29,1.53-17.15,1.18-34.47,1.4-51.72,0-.93-1.72-2.5-2.83-2.7-5.2-1-10.48-1.52-15.72-2.23-9.85-2.37-19.76-4.54-29.55-7.16-20.52-5.48-37.06-16-46.12-36.31A121.5,121.5,0,0,1,69.52,94.36c-.36-18,.09-36-.23-54-.12-6.73-.48-13.8-6.85-18.4-2.13-.65-4.24-1.68-6.41-1.86-4.61-.37-9.25-.3-13.88-.41.14-3,.28-5.94.47-9.93H58.44c3.66.12,7.35-.06,11,.38,21.89,2.65,30.27,8.6,35.3,28.24,4.53,17.7,5.34,35.75,5.77,53.89.33,13.95.87,27.92,2.1,41.81.81,9.21,4,17.85,10.83,24.65,12.45,12.38,28.24,16.15,45,17.49l6.05,1.19v-7.15c0-12.81.11-25.63.1-38.44,0-29.95,0-59.91-.12-89.86-.06-11.63-5.35-17.92-16.73-20-6.27-1.15-12.67-1.63-18.91-2.4V10.31l4.74-.59L245,9.89h6.15v9.74c-6.68.79-13.31,1.19-19.78,2.43-10.31,2-15.77,8.12-15.89,18.74-.29,25.16-.11,50.33-.11,75.49v60.82c13.44-.94,25.86-3.25,37.6-8.72,11.92-5.55,20-14.51,22.82-27.34C277.56,133,277.76,124.6,278.66,116.36Z"/><path class="cls-2" d="M164.15,269.11l85-.16c6.51,0,6.57-.1,5.77-7.25-5.5-.47-11.08-.81-16.63-1.45-14.15-1.61-22.18-9.75-22.72-24.24-.56-15-.16-30-.29-45,0-3.31,2-3.42,4.45-3.95,16.88-3.59,33.86-6.82,50.52-11.25,20.23-5.37,33.56-18.88,41.21-38.2a11.22,11.22,0,0,1,1-1.67c17.24,14,28,32.11,32.75,53.5,12.36,55.27-21,108.18-75.81,121.12-39,9.2-81.56-7-104.39-39.66A13.47,13.47,0,0,1,164.15,269.11Z"/><path class="cls-3" d="M168.38,176.21c-16.73-1.34-32.52-5.11-45-17.49-6.83-6.8-10-15.44-10.83-24.65-1.23-13.89-1.77-27.86-2.1-41.81-.43-18.14-1.24-36.19-5.77-53.89-5-19.64-13.41-25.59-35.3-28.24-3.62-.44-7.31-.26-11-.38,28.35-12.87,56.71-13.12,85.08,0l-4.75.59v9.23c6.24.77,12.64,1.25,18.91,2.4,11.38,2.09,16.67,8.38,16.73,20,.15,30,.11,59.91.12,89.86,0,12.81-.06,25.63-.1,38.44Z"/><path class="cls-4" d="M42.15,19.68c4.63.11,9.27,0,13.88.41,2.17.18,4.28,1.21,6.41,1.86.37,6.38,4.58,12.56,1.07,19.18a1.48,1.48,0,0,0,.32,1.39c3.32,2.18,1.45,4.8.82,7.43a31.89,31.89,0,0,0-1.14,7.85c.15,9.28.62,18.57.88,27.85.37,12.79,1,25.59.88,38.37-.13,14.25-1.28,28.49-1.37,42.73,0,9.43,1,18.86,1.51,28.29-27.63-10.28-47.34-29.31-57.74-56.52C-7.63,98.44.19,62,29.09,30.37,32.84,26.26,37.77,23.22,42.15,19.68Z"/><path class="cls-5" d="M65.41,195c-.54-9.43-1.56-18.86-1.51-28.29.09-14.24,1.24-28.48,1.37-42.73.11-12.78-.51-25.58-.88-38.37-.26-9.28-.73-18.57-.88-27.85A31.89,31.89,0,0,1,64.65,50c.63-2.63,2.5-5.25-.82-7.43a1.48,1.48,0,0,1-.32-1.39c3.51-6.62-.7-12.8-1.07-19.18,6.37,4.6,6.73,11.67,6.85,18.4.32,18-.13,36,.23,54a121.5,121.5,0,0,0,10.66,47.37C89.24,162,105.78,172.56,126.3,178c9.79,2.62,19.7,4.79,29.54,7.16l-7.42,5.06c-15.56,7.77-32,12-49.41,11.64A92.33,92.33,0,0,1,65.41,195Z"/><path class="cls-2" d="M278.66,116.36c-.9,8.24-1.1,16.64-2.86,24.69C273,153.88,264.9,162.84,253,168.39c-11.74,5.47-24.16,7.78-37.6,8.72V116.29C236.48,109.84,257.57,109.67,278.66,116.36Z"/><path class="cls-2" d="M148.42,190.26l7.42-5.06c5.25.71,10.53,1.28,15.73,2.23,1.11.2,2.84,1.77,2.83,2.7-.22,17.25.13,34.57-1.4,51.72-.73,8.26-5.67,15.67-15.45,17.29C146.67,237.22,143.76,214.24,148.42,190.26Z"/><path class="cls-6" d="M168.38,176.21l6.05-6v7.15Z"/></g></g></svg>