<svg width="44" height="38" viewBox="0 0 44 38" fill="none" xmlns="http://www.w3.org/2000/svg">
<path fill-rule="evenodd" clip-rule="evenodd" d="M30.6518 37.6177V36.5595C30.6518 36.5595 27.3449 36.6256 26.419 35.8981C25.493 35.1706 24.8978 33.914 24.8978 31.996C24.8978 30.078 24.8978 25.9775 24.8978 25.9775C24.8978 25.9775 33.6941 25.0515 36.4719 22.2737C39.2497 19.496 40.0433 14.9986 40.0433 12.2208C40.0433 10.8319 40.0579 7.09892 40.0579 5.14742C40.0579 3.95548 40.2685 1.83323 41.8862 1.83323C42.6905 1.83323 43.9454 1.83723 43.9454 1.83723V0.44834C43.9454 0.44834 42.2258 0.382202 41.1676 0.382202C40.1094 0.382202 37.5632 0.547546 36.2735 1.83723C34.9838 3.12691 34.1571 6.66527 34.1571 12.7499C34.1571 18.8346 33.628 20.488 32.1068 22.0092C29.8248 24.2912 24.8978 24.4563 24.8978 24.4563C24.8978 24.4563 24.8978 9.11236 24.8978 6.99596C24.8978 4.87956 24.8317 3.75522 25.8237 2.76315C26.8158 1.77109 30.1227 1.90337 30.1227 1.90337V0.382203H13.8765V1.90337C13.8765 1.90337 17.1833 1.77109 18.1754 2.76315C19.1675 3.75522 19.1013 4.87956 19.1013 6.99596C19.1013 9.11236 19.1013 24.4563 19.1013 24.4563C19.1013 24.4563 14.1743 24.2912 11.8923 22.0092C10.3712 20.488 9.84207 18.8346 9.84207 12.7499C9.84207 6.66528 9.01535 3.12692 7.72567 1.83724C6.43599 0.547558 3.88969 0.382214 2.83149 0.382214C1.77329 0.382214 0.0537109 0.448352 0.0537109 0.448352V1.83724C0.0537109 1.83724 1.30861 1.83324 2.11297 1.83324C3.73065 1.83324 3.94127 3.95549 3.94127 5.14743C3.94127 7.09893 3.95583 10.832 3.95583 12.2208C3.95583 14.9986 4.74948 19.496 7.52726 22.2738C10.305 25.0515 19.1013 25.9775 19.1013 25.9775C19.1013 25.9775 19.1013 30.078 19.1013 31.996C19.1013 33.914 18.5061 35.1706 17.5802 35.8981C16.6542 36.6256 13.3474 36.5595 13.3474 36.5595V37.6177" fill="#646C79"/>
</svg>
