<svg width="38" height="38" viewBox="0 0 38 38" fill="none" xmlns="http://www.w3.org/2000/svg">
<circle cx="19" cy="19" r="18.5" stroke="#E89160"/>
<path d="M19.7403 26.4036L22.305 23.8389C22.6476 23.4963 23.1867 23.4486 23.5841 23.7258L27.1349 26.2023C27.6454 26.5584 27.7101 27.2894 27.2699 27.7296L26.8836 28.1159C26.1734 28.8261 25.1542 29.1338 24.1981 28.826C22.1331 28.1613 18.3762 26.6179 15.2613 23.503C12.1463 20.388 10.6029 16.6311 9.93822 14.5661C9.63044 13.61 9.9381 12.5909 10.6484 11.8806L11.0346 11.4943C11.4748 11.0542 12.2058 11.1188 12.562 11.6294L15.0384 15.1801C15.3156 15.5776 15.2679 16.1166 14.9253 16.4593L12.3606 19.0239" stroke="#E89160" stroke-linecap="round"/>
</svg>
