<svg width="53" height="50" viewBox="0 0 53 50" fill="none" xmlns="http://www.w3.org/2000/svg">
<circle cx="35.5" cy="35.5" r="14.5" fill="#E89160"/>
<circle cx="14.5" cy="19.5" r="14.5" fill="url(#paint0_linear)"/>
<path fill-rule="evenodd" clip-rule="evenodd" d="M36.6523 43.6173V42.5591C36.6523 42.5591 33.3454 42.6252 32.4195 41.8977C31.4935 41.1702 30.8983 39.9136 30.8983 37.9956C30.8983 36.0776 30.8983 31.9771 30.8983 31.9771C30.8983 31.9771 39.6946 31.0512 42.4724 28.2734C45.2501 25.4956 46.0438 20.9983 46.0438 18.2205C46.0438 16.8316 46.0584 13.0986 46.0584 11.1471C46.0584 9.95511 46.269 7.83286 47.8867 7.83286C48.691 7.83286 49.9459 7.83686 49.9459 7.83686V6.44797C49.9459 6.44797 48.2263 6.38184 47.1681 6.38184C46.1099 6.38184 43.5636 6.54718 42.274 7.83686C40.9843 9.12654 40.1576 12.6649 40.1576 18.7496C40.1576 24.8342 39.6285 26.4877 38.1073 28.0088C35.8253 30.2908 30.8983 30.4559 30.8983 30.4559C30.8983 30.4559 30.8983 15.112 30.8983 12.9956C30.8983 10.8792 30.8322 9.75485 31.8242 8.76279C32.8163 7.77072 36.1232 7.903 36.1232 7.903V6.38184H19.877V7.903C19.877 7.903 23.1838 7.77072 24.1759 8.76279C25.168 9.75485 25.1018 10.8792 25.1018 12.9956C25.1018 15.112 25.1018 30.4559 25.1018 30.4559C25.1018 30.4559 20.1748 30.2908 17.8928 28.0088C16.3717 26.4877 15.8426 24.8342 15.8426 18.7496C15.8426 12.6649 15.0158 9.12656 13.7262 7.83687C12.4365 6.54719 9.89018 6.38185 8.83198 6.38185C7.77378 6.38185 6.0542 6.44799 6.0542 6.44799V7.83687C6.0542 7.83687 7.3091 7.83287 8.11346 7.83287C9.73114 7.83287 9.94176 9.95513 9.94176 11.1471C9.94176 13.0986 9.95632 16.8316 9.95632 18.2205C9.95632 20.9983 10.75 25.4956 13.5277 28.2734C16.3055 31.0512 25.1018 31.9771 25.1018 31.9771C25.1018 31.9771 25.1018 36.0776 25.1018 37.9956C25.1018 39.9136 24.5066 41.1702 23.5807 41.8977C22.6547 42.6252 19.3478 42.5591 19.3478 42.5591V43.6173" fill="#646C79"/>
<defs>
<linearGradient id="paint0_linear" x1="29" y1="22.5902" x2="-0.000357161" y2="22.6131" gradientUnits="userSpaceOnUse">
<stop stop-color="#4DC8C0"/>
<stop offset="1" stop-color="#56D0C9"/>
</linearGradient>
</defs>
</svg>
